<?xml version="1.0" encoding="UTF-8" standalone="no"?>
<!-- Created with Inkscape (http://www.inkscape.org/) -->

<svg
   width="50"
   height="50"
   viewBox="0 0 13.229167 13.229167"
   version="1.1"
   id="svg1"
   xml:space="preserve"
   inkscape:version="1.3 (0e150ed6c4, 2023-07-21)"
   sodipodi:docname="icon.svg"
   xmlns:inkscape="http://www.inkscape.org/namespaces/inkscape"
   xmlns:sodipodi="http://sodipodi.sourceforge.net/DTD/sodipodi-0.dtd"
   xmlns="http://www.w3.org/2000/svg"
   xmlns:svg="http://www.w3.org/2000/svg"><sodipodi:namedview
     id="namedview1"
     pagecolor="#ffffff"
     bordercolor="#000000"
     borderopacity="0.25"
     inkscape:showpageshadow="2"
     inkscape:pageopacity="0.0"
     inkscape:pagecheckerboard="0"
     inkscape:deskcolor="#d1d1d1"
     inkscape:document-units="mm"
     inkscape:zoom="8.5247523"
     inkscape:cx="14.60453"
     inkscape:cy="31.731127"
     inkscape:window-width="1920"
     inkscape:window-height="1057"
     inkscape:window-x="-8"
     inkscape:window-y="-8"
     inkscape:window-maximized="1"
     inkscape:current-layer="layer1"
     showguides="false" /><defs
     id="defs1" /><g
     inkscape:label="Layer 1"
     inkscape:groupmode="layer"
     id="layer1"><path
       id="path1"
       style="fill:#000000;stroke-width:0.13229167;fill-opacity:1;stroke:#ffffff;stroke-opacity:1;stroke-dasharray:none"
       d="M 6.6145833 0 A 6.6145835 6.6145835 0 0 0 0 6.6145833 A 6.6145835 6.6145835 0 0 0 6.6145833 13.229167 A 6.6145835 6.6145835 0 0 0 13.229167 6.6145833 A 6.6145835 6.6145835 0 0 0 6.6145833 0 z M 6.6145833 0.79375 A 5.8208332 5.8208332 0 0 1 12.435417 6.6145833 A 5.8208332 5.8208332 0 0 1 6.6145833 12.435417 A 5.8208332 5.8208332 0 0 1 0.79375 6.6145833 A 5.8208332 5.8208332 0 0 1 6.6145833 0.79375 z " /><g
       id="g6"
       transform="translate(-0.13229152)"
       style="fill:#000000;fill-opacity:1;stroke:#ffffff;stroke-opacity:1;stroke-width:0.13229167;stroke-dasharray:none"><path
         id="rect2"
         style="fill:#000000;stroke-width:0.13229167;fill-opacity:1;stroke:#ffffff;stroke-opacity:1;stroke-dasharray:none"
         d="M 3.3072917,4.8947917 V 6.2177083 H 4.365625 V 10.186458 H 5.6885417 V 6.2177083 H 7.540625 V 9.525 a 0.66145831,0.66145831 0 0 0 0.6614583,0.661458 H 8.8635417 10.186458 V 8.8635417 H 8.8635417 V 6.2177083 H 9.921875 V 4.8947917 Z m 4.6953206,4.0002726 a 0.66145831,0.66145831 0 0 0 -0.013436,0.00517 0.66145831,0.66145831 0 0 1 0.013436,-0.00517 z m -0.1803507,0.089917 a 0.66145831,0.66145831 0 0 0 -0.01757,0.013436 0.66145831,0.66145831 0 0 1 0.01757,-0.013436 z m 0.7658447,0.00362 a 0.66145831,0.66145831 0 0 1 0.00413,0.00258 0.66145831,0.66145831 0 0 0 -0.00413,-0.00258 z M 7.6755005,9.1276082 a 0.66145831,0.66145831 0 0 0 -0.013436,0.01757 0.66145831,0.66145831 0 0 1 0.013436,-0.01757 z m 1.0604004,0.00723 a 0.66145831,0.66145831 0 0 1 0.00258,0.00413 0.66145831,0.66145831 0 0 0 -0.00258,-0.00413 z M 7.5773153,9.3120931 a 0.66145831,0.66145831 0 0 0 -0.00517,0.013436 0.66145831,0.66145831 0 0 1 0.00517,-0.013436 z M 8.832019,9.724471 A 0.66145831,0.66145831 0 0 1 8.826849,9.737907 0.66145831,0.66145831 0 0 0 8.832019,9.724471 Z M 8.742102,9.9048218 a 0.66145831,0.66145831 0 0 1 -0.013436,0.01757 0.66145831,0.66145831 0 0 0 0.013436,-0.01757 z M 8.599475,10.051583 a 0.66145831,0.66145831 0 0 1 -0.01757,0.01344 0.66145831,0.66145831 0 0 0 0.01757,-0.01344 z m -0.1844849,0.09818 a 0.66145831,0.66145831 0 0 1 -0.013436,0.0052 0.66145831,0.66145831 0 0 0 0.013436,-0.0052 z" /><circle
         style="fill:#000000;stroke-width:0.13229167;fill-opacity:1;stroke:#ffffff;stroke-opacity:1;stroke-dasharray:none"
         id="path6"
         cx="5.0270834"
         cy="3.7041669"
         r="0.66145831" /><circle
         style="fill:#000000;stroke-width:0.13229167;fill-opacity:1;stroke:#ffffff;stroke-opacity:1;stroke-dasharray:none"
         id="circle6"
         cx="8.4666672"
         cy="3.7041669"
         r="0.66145831" /></g></g></svg>
