<?xml version="1.0" encoding="UTF-8" standalone="no"?>
<svg
   viewBox="0 0 50 50"
   width="50px"
   height="50px"
   version="1.1"
   id="svg1"
   sodipodi:docname="menu-black.svg"
   inkscape:version="1.3 (0e150ed6c4, 2023-07-21)"
   xmlns:inkscape="http://www.inkscape.org/namespaces/inkscape"
   xmlns:sodipodi="http://sodipodi.sourceforge.net/DTD/sodipodi-0.dtd"
   xmlns="http://www.w3.org/2000/svg"
   xmlns:svg="http://www.w3.org/2000/svg">
  <defs
     id="defs1" />
  <sodipodi:namedview
     id="namedview1"
     pagecolor="#ffffff"
     bordercolor="#000000"
     borderopacity="0.25"
     inkscape:showpageshadow="2"
     inkscape:pageopacity="0.0"
     inkscape:pagecheckerboard="0"
     inkscape:deskcolor="#d1d1d1"
     inkscape:zoom="17.22"
     inkscape:cx="25"
     inkscape:cy="24.941928"
     inkscape:window-width="1920"
     inkscape:window-height="1057"
     inkscape:window-x="-8"
     inkscape:window-y="-8"
     inkscape:window-maximized="1"
     inkscape:current-layer="svg1" />
  <path
     d="M 5 8 A 2.0002 2.0002 0 1 0 5 12 L 45 12 A 2.0002 2.0002 0 1 0 45 8 L 5 8 z M 5 23 A 2.0002 2.0002 0 1 0 5 27 L 45 27 A 2.0002 2.0002 0 1 0 45 23 L 5 23 z M 5 38 A 2.0002 2.0002 0 1 0 5 42 L 45 42 A 2.0002 2.0002 0 1 0 45 38 L 5 38 z"
     id="path1"
     style="fill:#a6a6a6;fill-opacity:1" />
</svg>
