<?xml version="1.0" encoding="UTF-8" standalone="no"?>
<!-- Created with Inkscape (http://www.inkscape.org/) -->

<svg
   width="50"
   height="50"
   viewBox="0 0 13.229166 13.229167"
   version="1.1"
   id="svg1"
   xml:space="preserve"
   inkscape:version="1.3 (0e150ed6c4, 2023-07-21)"
   sodipodi:docname="user-black.svg"
   xmlns:inkscape="http://www.inkscape.org/namespaces/inkscape"
   xmlns:sodipodi="http://sodipodi.sourceforge.net/DTD/sodipodi-0.dtd"
   xmlns="http://www.w3.org/2000/svg"
   xmlns:svg="http://www.w3.org/2000/svg"><sodipodi:namedview
     id="namedview1"
     pagecolor="#ffffff"
     bordercolor="#000000"
     borderopacity="0.25"
     inkscape:showpageshadow="2"
     inkscape:pageopacity="0.0"
     inkscape:pagecheckerboard="0"
     inkscape:deskcolor="#d1d1d1"
     inkscape:document-units="mm"
     inkscape:zoom="4.3699199"
     inkscape:cx="62.472541"
     inkscape:cy="54.348822"
     inkscape:window-width="1920"
     inkscape:window-height="1057"
     inkscape:window-x="-8"
     inkscape:window-y="-8"
     inkscape:window-maximized="1"
     inkscape:current-layer="layer1" /><defs
     id="defs1" /><g
     inkscape:label="Layer 1"
     inkscape:groupmode="layer"
     id="layer1"><path
       id="path5"
       style="fill:#a6a6a6;stroke-width:0.55072"
       d="M 6.6145833 0 A 6.6145835 6.6145835 0 0 0 0 6.6145833 A 6.6145835 6.6145835 0 0 0 6.6145833 13.229167 A 6.6145835 6.6145835 0 0 0 13.229167 6.6145833 A 6.6145835 6.6145835 0 0 0 6.6145833 0 z M 6.6145833 0.79375 A 5.8208332 5.8208332 0 0 1 12.435417 6.6145833 A 5.8208332 5.8208332 0 0 1 10.656714 10.800891 A 4.6302085 6.6145835 0 0 0 8.0873617 7.7540487 A 2.6458333 2.6458333 0 0 0 9.2604167 5.55625 A 2.6458333 2.6458333 0 0 0 6.6145833 2.9104167 A 2.6458333 2.6458333 0 0 0 3.96875 5.55625 A 2.6458333 2.6458333 0 0 0 5.1459391 7.7535319 A 4.6302085 6.6145835 0 0 0 2.5765869 10.797274 A 5.8208332 5.8208332 0 0 1 0.79375 6.6145833 A 5.8208332 5.8208332 0 0 1 6.6145833 0.79375 z M 6.6145833 3.7041667 A 1.8520833 1.8520833 0 0 1 8.4666667 5.55625 A 1.8520833 1.8520833 0 0 1 6.6145833 7.4083333 A 1.8520833 1.8520833 0 0 1 4.7625 5.55625 A 1.8520833 1.8520833 0 0 1 6.6145833 3.7041667 z M 6.6145833 8.2020833 A 3.8364584 5.8208332 0 0 1 10.014376 11.338843 A 5.8208332 5.8208332 0 0 1 6.6145833 12.435417 A 5.8208332 5.8208332 0 0 1 3.2215088 11.34091 A 3.8364584 5.8208332 0 0 1 6.6145833 8.2020833 z " /></g></svg>
